<svg xmlns="http://www.w3.org/2000/svg" width="334.902500" height="46.589000" viewBox="92.494500 870.496000 334.902500 46.589000" fill="none">
  <title>OpenFilter G</title>
  <path d="M109.554 909.774C106.152 909.774 103.172 909.158 100.615 907.927C98.0579 906.695 96.0652 904.969 94.637 902.747C93.2087 900.526 92.4945 897.957 92.4945 895.04C92.4945 892.09 93.2087 889.511 94.637 887.302C96.0652 885.094 98.0595 883.374 100.62 882.143C103.177 880.908 106.156 880.291 109.558 880.291C112.96 880.291 115.94 880.908 118.497 882.143C121.054 883.374 123.047 885.094 124.475 887.302C125.903 889.507 126.618 892.086 126.618 895.04C126.618 897.96 125.903 900.531 124.475 902.752C123.047 904.97 121.053 906.695 118.492 907.927C115.935 909.158 112.956 909.774 109.554 909.774ZM109.558 902.943C111.267 902.943 112.729 902.625 113.943 901.988C115.156 901.351 116.093 900.443 116.752 899.263C117.408 898.081 117.736 896.674 117.736 895.044C117.736 893.395 117.408 891.98 116.752 890.801C116.093 889.622 115.156 888.714 113.943 888.077C112.729 887.44 111.267 887.121 109.558 887.121C107.878 887.121 106.423 887.44 105.193 888.077C103.963 888.714 103.019 889.622 102.36 890.801C101.704 891.98 101.376 893.391 101.376 895.035C101.376 896.678 101.704 898.089 102.36 899.268C103.019 900.444 103.963 901.351 105.193 901.988C106.423 902.625 107.878 902.943 109.558 902.943Z" fill="#F3F4EF" />
  <path d="M129.616 881.065H138.408V889.507L138.039 890.664V897.926L138.408 900.082V917.085H129.616V881.065ZM135.509 895.044C135.982 892.046 136.879 889.445 138.2 887.244C139.524 885.042 141.2 883.333 143.227 882.118C145.255 880.9 147.528 880.291 150.047 880.291C152.693 880.291 155.016 880.908 157.019 882.143C159.024 883.374 160.589 885.094 161.715 887.302C162.844 889.511 163.408 892.091 163.408 895.044C163.408 897.962 162.844 900.531 161.715 902.752C160.589 904.97 159.024 906.695 157.019 907.927C155.016 909.158 152.693 909.774 150.047 909.774C147.512 909.774 145.239 909.163 143.227 907.941C141.219 906.716 139.551 904.998 138.224 902.786C136.899 900.575 135.994 897.994 135.509 895.044ZM154.526 895.044C154.526 893.535 154.227 892.199 153.627 891.036C153.028 889.873 152.199 888.96 151.14 888.297C150.08 887.637 148.865 887.307 147.493 887.307C146.106 887.307 144.79 887.637 143.544 888.297C142.299 888.96 141.21 889.873 140.276 891.036C139.343 892.199 138.615 893.535 138.091 895.044C138.615 896.554 139.343 897.886 140.276 899.043C141.21 900.199 142.299 901.107 143.544 901.767C144.79 902.427 146.106 902.757 147.493 902.757C148.865 902.757 150.08 902.427 151.14 901.767C152.199 901.107 153.028 900.199 153.627 899.043C154.227 897.886 154.526 896.554 154.526 895.044Z" fill="#F3F4EF" />
  <path fill-rule="evenodd" d="M183.414 909.774C189.562 909.774 194.764 907.775 198.075 904.1L192.873 899.2C190.508 901.65 187.67 903.12 183.887 903.12C179.157 903.12 175.847 900.67 174.901 897.24H198.548V894.79C198.548 886.46 192.4 880.291 182.941 880.291C173.009 880.291 166.463 886.46 166.463 895.035C166.463 903.61 173.482 909.774 183.414 909.774ZM174.901 891.85C176.319 888.42 179.157 886.46 182.941 886.46C186.724 886.46 190.035 888.42 190.981 891.85H174.901Z" fill="#F3F4EF" />
  <path d="M201.125 881.065H209.918L211.653 891.967V909H202.861V890.595L201.125 881.065ZM221.741 880.291C224.32 880.291 226.513 880.825 228.32 881.893C230.13 882.961 231.514 884.473 232.472 886.43C233.431 888.39 233.91 890.719 233.91 893.418V909H225.118V894.78C225.118 892.477 224.571 890.724 223.477 889.522C222.383 888.323 220.802 887.724 218.733 887.724C217.295 887.724 216.044 888.044 214.978 888.684C213.909 889.321 213.088 890.223 212.514 891.389C211.94 892.555 211.653 893.932 211.653 895.52L208.858 894.006C209.214 891.043 209.996 888.545 211.204 886.514C212.415 884.482 213.927 882.937 215.739 881.878C217.556 880.82 219.556 880.291 221.741 880.291Z" fill="#F3F4EF" />
  <path d="M257.023 877.321C254.863 877.321 253.332 877.739 252.431 878.576C251.532 879.412 251.083 880.745 251.083 882.574V909H242.295V883.118C242.295 880.469 242.803 878.205 243.818 876.327C244.837 874.448 246.361 873.008 248.392 872.005C250.425 870.999 252.952 870.496 255.973 870.496C257.341 870.496 258.568 870.599 259.653 870.804C260.734 871.01 261.858 871.293 263.025 871.652V878.419C262.082 878.05 261.117 877.774 260.13 877.591C259.146 877.411 258.111 877.321 257.023 877.321ZM236.743 890.061V883.29H262.396V890.061H236.743Z" fill="#F3F4EF" />
  <path d="M267.338 881.56H276.13V909H267.338V881.56Z" fill="#F3F4EF" />
  <path d="M267.338 870.78H276.13V877.15H267.338V870.78Z" fill="#DDD57F" />
  <path d="M279.634 871.27H288.427V909H279.634V871.27Z" fill="#F3F4EF" />
  <path d="M291.505 887.842V883.848L297.053 881.756L300.822 873.617H305.845V881.065H317.475V887.842H305.845V897.044C305.845 899.128 306.258 900.592 307.084 901.434C307.91 902.277 309.383 902.699 311.502 902.699C312.832 902.699 314.016 902.573 315.053 902.321C316.091 902.07 317.056 901.724 317.948 901.283V908.226C317.015 908.608 315.785 908.961 314.259 909.284C312.733 909.611 311.153 909.774 309.52 909.774C306.632 909.774 304.27 909.304 302.435 908.363C300.6 907.419 299.244 906.085 298.368 904.36C297.491 902.635 297.053 900.619 297.053 898.313V887.842H291.505Z" fill="#F3F4EF" />
  <path fill-rule="evenodd" d="M337.972 909.774C344.121 909.774 349.323 907.775 352.634 904.1L347.431 899.2C345.067 901.65 342.229 903.12 338.445 903.12C333.716 903.12 330.405 900.67 329.459 897.24H353.107V894.79C353.107 886.46 346.958 880.291 337.499 880.291C327.568 880.291 321.022 886.46 321.022 895.035C321.022 903.61 328.04 909.774 337.972 909.774ZM329.459 891.85C330.878 888.42 333.716 886.46 337.499 886.46C341.283 886.46 344.594 888.42 345.539 891.85H329.459Z" fill="#F3F4EF" />
  <path d="M355.684 881.065H364.604L366.212 891.095V909H357.42V890.355L355.684 881.065ZM379.081 880.692V888.508C378.217 888.312 377.369 888.168 376.536 888.077C375.701 887.988 374.935 887.944 374.238 887.944C372.747 887.944 371.394 888.258 370.18 888.885C368.966 889.516 368.001 890.515 367.286 891.884C366.57 893.253 366.212 895.035 366.212 897.23L364.472 894.995C364.683 893.006 365.042 891.124 365.55 889.351C366.054 887.577 366.746 886.012 367.626 884.656C368.509 883.301 369.606 882.234 370.918 881.457C372.233 880.679 373.809 880.291 375.647 880.291C376.208 880.291 376.784 880.325 377.373 880.393C377.966 880.459 378.535 880.558 379.081 880.692Z" fill="#F3F4EF" />
  <path d="M424.737 895.778C424.672 897.627 424.302 899.385 423.627 901.053C422.954 902.72 421.982 904.201 420.711 905.494C419.439 906.787 417.865 907.801 415.989 908.536C414.115 909.273 411.937 909.642 409.453 909.642C407.065 909.642 404.83 909.288 402.751 908.581C400.671 907.873 398.846 906.841 397.277 905.486C395.709 904.127 394.487 902.463 393.608 900.491C392.732 898.523 392.295 896.275 392.295 893.748C392.295 891.221 392.736 888.974 393.62 887.005C394.504 885.034 395.743 883.369 397.338 882.011C398.935 880.655 400.795 879.624 402.918 878.916C405.043 878.208 407.359 877.854 409.864 877.854C413.166 877.854 416.027 878.368 418.445 879.396C420.864 880.426 422.812 881.835 424.29 883.621C425.77 885.408 426.709 887.465 427.108 889.791H419.369C419.095 888.661 418.524 887.684 417.656 886.863C416.789 886.044 415.699 885.414 414.386 884.972C413.071 884.533 411.569 884.313 409.88 884.313C407.86 884.313 406.113 884.673 404.638 885.395C403.163 886.119 402.024 887.179 401.222 888.575C400.416 889.974 400.014 891.699 400.014 893.748C400.014 895.812 400.442 897.562 401.299 898.999C402.153 900.436 403.369 901.522 404.947 902.256C406.528 902.994 408.393 903.363 410.543 903.363C412.623 903.363 414.453 903.051 416.034 902.427C417.617 901.801 418.878 900.904 419.816 899.735C420.754 898.564 421.288 897.163 421.418 895.534L424.737 895.778ZM411.418 898.885V893.407H427.397V909H421.927L420.873 896.79L422.39 898.885H411.418Z" fill="#DDD57F" />
</svg>
