<svg xmlns="http://www.w3.org/2000/svg" width="286.586500" height="46.589000" viewBox="92.494500 246.496000 286.586500 46.589000" fill="none">
  <title>OpenFilter</title>
  <path d="M109.554 285.774C106.152 285.774 103.172 285.159 100.615 283.927C98.0579 282.695 96.0652 280.969 94.637 278.748C93.2087 276.526 92.4945 273.957 92.4945 271.04C92.4945 268.09 93.2087 265.511 94.637 263.303C96.0652 261.095 98.0595 259.375 100.62 258.143C103.177 256.908 106.156 256.291 109.558 256.291C112.96 256.291 115.94 256.908 118.497 258.143C121.054 259.375 123.047 261.095 124.475 263.303C125.903 265.508 126.618 268.087 126.618 271.04C126.618 273.96 125.903 276.531 124.475 278.753C123.047 280.971 121.053 282.695 118.492 283.927C115.935 285.159 112.956 285.774 109.554 285.774ZM109.558 278.944C111.267 278.944 112.729 278.625 113.943 277.988C115.156 277.351 116.093 276.443 116.752 275.264C117.408 274.081 117.736 272.675 117.736 271.045C117.736 269.395 117.408 267.981 116.752 266.802C116.093 265.622 115.156 264.714 113.943 264.077C112.729 263.44 111.267 263.122 109.558 263.122C107.878 263.122 106.423 263.44 105.193 264.077C103.963 264.714 103.019 265.622 102.36 266.802C101.704 267.981 101.376 269.392 101.376 271.035C101.376 272.678 101.704 274.089 102.36 275.269C103.019 276.445 103.963 277.351 105.193 277.988C106.423 278.625 107.878 278.944 109.558 278.944Z" fill="#F3F4EF" />
  <path d="M129.616 257.065H138.408V265.508L138.039 266.664V273.926L138.408 276.082V293.085H129.616V257.065ZM135.509 271.045C135.982 268.046 136.879 265.446 138.2 263.244C139.524 261.042 141.2 259.334 143.227 258.119C145.255 256.9 147.528 256.291 150.047 256.291C152.693 256.291 155.016 256.908 157.019 258.143C159.024 259.375 160.589 261.095 161.715 263.303C162.844 265.511 163.408 268.092 163.408 271.045C163.408 273.962 162.844 276.531 161.715 278.753C160.589 280.971 159.024 282.695 157.019 283.927C155.016 285.159 152.693 285.774 150.047 285.774C147.512 285.774 145.239 285.163 143.227 283.942C141.219 282.717 139.551 280.998 138.224 278.787C136.899 276.575 135.994 273.995 135.509 271.045ZM154.526 271.045C154.526 269.536 154.227 268.2 153.627 267.037C153.028 265.874 152.199 264.961 151.14 264.298C150.08 263.638 148.865 263.308 147.493 263.308C146.106 263.308 144.79 263.638 143.544 264.298C142.299 264.961 141.21 265.874 140.276 267.037C139.343 268.2 138.615 269.536 138.091 271.045C138.615 272.554 139.343 273.887 140.276 275.043C141.21 276.2 142.299 277.108 143.544 277.768C144.79 278.428 146.106 278.758 147.493 278.758C148.865 278.758 150.08 278.428 151.14 277.768C152.199 277.108 153.028 276.2 153.627 275.043C154.227 273.887 154.526 272.554 154.526 271.045Z" fill="#F3F4EF" />
  <path fill-rule="evenodd" d="M183.414 285.774C189.562 285.774 194.764 283.775 198.075 280.1L192.873 275.2C190.508 277.65 187.67 279.12 183.887 279.12C179.157 279.12 175.847 276.67 174.901 273.24H198.548V270.79C198.548 262.46 192.4 256.291 182.941 256.291C173.009 256.291 166.463 262.46 166.463 271.035C166.463 279.61 173.482 285.774 183.414 285.774ZM174.901 267.85C176.319 264.42 179.157 262.46 182.941 262.46C186.724 262.46 190.035 264.42 190.981 267.85H174.901Z" fill="#F3F4EF" />
  <path d="M201.125 257.065H209.918L211.653 267.968V285H202.861V266.596L201.125 257.065ZM221.741 256.291C224.32 256.291 226.513 256.825 228.32 257.893C230.13 258.962 231.514 260.474 232.472 262.431C233.431 264.391 233.91 266.72 233.91 269.418V285H225.118V270.78C225.118 268.477 224.571 266.725 223.477 265.523C222.383 264.324 220.802 263.724 218.733 263.724C217.295 263.724 216.044 264.044 214.978 264.685C213.909 265.322 213.088 266.223 212.514 267.39C211.94 268.556 211.653 269.933 211.653 271.52L208.858 270.006C209.214 267.043 209.996 264.546 211.204 262.514C212.415 260.482 213.927 258.937 215.739 257.879C217.556 256.82 219.556 256.291 221.741 256.291Z" fill="#F3F4EF" />
  <path d="M257.023 253.322C254.863 253.322 253.332 253.74 252.431 254.576C251.532 255.412 251.083 256.745 251.083 258.574V285H242.295V259.118C242.295 256.469 242.803 254.205 243.818 252.327C244.837 250.449 246.361 249.008 248.392 248.005C250.425 246.999 252.952 246.496 255.973 246.496C257.341 246.496 258.568 246.599 259.653 246.805C260.734 247.01 261.858 247.293 263.025 247.652V254.419C262.082 254.05 261.117 253.774 260.13 253.591C259.146 253.411 258.111 253.322 257.023 253.322ZM236.743 266.062V259.29H262.396V266.062H236.743Z" fill="#F3F4EF" />
  <path d="M267.338 257.56H276.13V285H267.338V257.56Z" fill="#F3F4EF" />
  <path d="M267.338 246.78H276.13V253.15H267.338V246.78Z" fill="#C4F564" />
  <path d="M279.634 247.27H288.427V285H279.634V247.27Z" fill="#F3F4EF" />
  <path d="M291.505 263.842V259.848L297.053 257.756L300.822 249.617H305.845V257.065H317.475V263.842H305.845V273.044C305.845 275.128 306.258 276.592 307.084 277.434C307.91 278.277 309.383 278.699 311.502 278.699C312.832 278.699 314.016 278.573 315.053 278.321C316.091 278.07 317.056 277.724 317.948 277.283V284.226C317.015 284.608 315.785 284.961 314.259 285.284C312.733 285.611 311.153 285.774 309.52 285.774C306.632 285.774 304.27 285.304 302.435 284.363C300.6 283.419 299.244 282.085 298.368 280.36C297.491 278.635 297.053 276.619 297.053 274.313V263.842H291.505Z" fill="#F3F4EF" />
  <path fill-rule="evenodd" d="M337.972 285.774C344.121 285.774 349.323 283.775 352.634 280.1L347.431 275.2C345.067 277.65 342.229 279.12 338.445 279.12C333.716 279.12 330.405 276.67 329.459 273.24H353.107V270.79C353.107 262.46 346.958 256.291 337.499 256.291C327.568 256.291 321.022 262.46 321.022 271.035C321.022 279.61 328.04 285.774 337.972 285.774ZM329.459 267.85C330.878 264.42 333.716 262.46 337.499 262.46C341.283 262.46 344.594 264.42 345.539 267.85H329.459Z" fill="#F3F4EF" />
  <path d="M355.684 257.065H364.604L366.212 267.096V285H357.42V266.356L355.684 257.065ZM379.081 256.693V264.508C378.217 264.312 377.369 264.169 376.536 264.077C375.701 263.989 374.935 263.945 374.238 263.945C372.747 263.945 371.394 264.258 370.18 264.886C368.966 265.516 368.001 266.516 367.286 267.884C366.57 269.253 366.212 271.035 366.212 273.23L364.472 270.996C364.683 269.007 365.042 267.125 365.55 265.351C366.054 263.577 366.746 262.013 367.626 260.657C368.509 259.301 369.606 258.235 370.918 257.457C372.233 256.68 373.809 256.291 375.647 256.291C376.208 256.291 376.784 256.325 377.373 256.394C377.966 256.459 378.535 256.559 379.081 256.693Z" fill="#F3F4EF" />
</svg>
